<svg width="25" height="25" viewBox="0 0 25 25" fill="none" xmlns="http://www.w3.org/2000/svg">
<g id="maki:arrow">
<path id="Vector" d="M13.8217 3.82166C14.1343 3.5092 14.5581 3.33368 15 3.33368C15.442 3.33368 15.8658 3.5092 16.1784 3.82166L23.6784 11.3217C23.9908 11.6342 24.1664 12.058 24.1664 12.5C24.1664 12.9419 23.9908 13.3658 23.6784 13.6783L16.1784 21.1783C15.864 21.4819 15.443 21.6499 15.006 21.6461C14.569 21.6423 14.151 21.467 13.842 21.158C13.533 20.849 13.3577 20.431 13.3539 19.994C13.3501 19.557 13.5181 19.136 13.8217 18.8217L18.3334 14.1667H2.50004C2.05801 14.1667 1.63409 13.9911 1.32153 13.6785C1.00897 13.3659 0.833374 12.942 0.833374 12.5C0.833374 12.058 1.00897 11.634 1.32153 11.3215C1.63409 11.0089 2.05801 10.8333 2.50004 10.8333H18.3334L13.8217 6.17832C13.5093 5.86578 13.3337 5.44193 13.3337 4.99999C13.3337 4.55805 13.5093 4.1342 13.8217 3.82166Z" fill="white"/>
</g>
</svg>
